<mxfile host="app.diagrams.net" modified="2023-11-22T20:07:32.099Z" agent="Mozilla/5.0 (Windows NT 10.0; Win64; x64) AppleWebKit/537.36 (KHTML, like Gecko) Chrome/119.0.0.0 Safari/537.36" etag="P9tUsNl8u5noHJ4wLcoA" version="22.1.3" type="device">
  <diagram name="Page-1" id="F3PHxVKM1yOQ9DfEnaqc">
    <mxGraphModel dx="3420" dy="1438" grid="1" gridSize="10" guides="1" tooltips="1" connect="1" arrows="1" fold="1" page="1" pageScale="1" pageWidth="827" pageHeight="1169" background="none" math="0" shadow="0">
      <root>
        <mxCell id="0" />
        <mxCell id="1" parent="0" />
        <mxCell id="1IW16SQAIGbm7M17Fada-5" value="&lt;font color=&quot;#47b347&quot;&gt;Docker&lt;/font&gt;" style="swimlane;whiteSpace=wrap;html=1;fontColor=#66FF66;strokeColor=#47B347;labelBackgroundColor=none;fillColor=none;" parent="1" vertex="1">
          <mxGeometry x="-99" y="160" width="1099" height="440" as="geometry" />
        </mxCell>
        <mxCell id="1IW16SQAIGbm7M17Fada-2" value="&lt;font color=&quot;#47b347&quot;&gt;&amp;nbsp; &amp;nbsp; &amp;nbsp; Service&lt;br&gt;&amp;nbsp; &amp;nbsp; &amp;nbsp; 3000&lt;br&gt;&lt;/font&gt;" style="triangle;whiteSpace=wrap;html=1;rotation=0;direction=west;fontColor=#66FF66;strokeColor=#47B347;labelBackgroundColor=none;fillColor=none;" parent="1IW16SQAIGbm7M17Fada-5" vertex="1">
          <mxGeometry x="649" y="177.5" width="90" height="80" as="geometry" />
        </mxCell>
        <mxCell id="1IW16SQAIGbm7M17Fada-4" value="&lt;font color=&quot;#47b347&quot;&gt;Multinode&lt;br&gt;&lt;/font&gt;" style="swimlane;whiteSpace=wrap;html=1;fontColor=#66FF66;strokeColor=#47B347;labelBackgroundColor=none;fillColor=none;" parent="1IW16SQAIGbm7M17Fada-5" vertex="1">
          <mxGeometry x="81.5" y="60" width="728.5" height="350" as="geometry" />
        </mxCell>
        <mxCell id="RgUsFBboZ1PsnpottQdm-1" value="&lt;font color=&quot;#47b347&quot;&gt;Proxy&lt;br&gt;&lt;/font&gt;" style="triangle;whiteSpace=wrap;html=1;rotation=0;direction=west;fontColor=#66FF66;strokeColor=#47B347;labelBackgroundColor=none;fillColor=none;" parent="1IW16SQAIGbm7M17Fada-5" vertex="1">
          <mxGeometry x="889" y="177.5" width="100" height="80" as="geometry" />
        </mxCell>
        <mxCell id="1IW16SQAIGbm7M17Fada-8" value="" style="endArrow=classic;html=1;rounded=0;entryX=0;entryY=0.5;entryDx=0;entryDy=0;fontColor=#66FF66;strokeColor=#47B347;labelBackgroundColor=none;exitX=1;exitY=0.5;exitDx=0;exitDy=0;" parent="1IW16SQAIGbm7M17Fada-5" source="RgUsFBboZ1PsnpottQdm-1" target="1IW16SQAIGbm7M17Fada-2" edge="1">
          <mxGeometry width="50" height="50" relative="1" as="geometry">
            <mxPoint x="849" y="160" as="sourcePoint" />
            <mxPoint x="-131" y="-165" as="targetPoint" />
          </mxGeometry>
        </mxCell>
        <mxCell id="nWGFYipzO0famYZCPNDL-2" value="" style="endArrow=classic;html=1;rounded=0;entryX=0;entryY=0.5;entryDx=0;entryDy=0;fontColor=#66FF66;strokeColor=#47B347;labelBackgroundColor=none;" edge="1" parent="1IW16SQAIGbm7M17Fada-5">
          <mxGeometry width="50" height="50" relative="1" as="geometry">
            <mxPoint x="1219" y="218" as="sourcePoint" />
            <mxPoint x="989" y="217.75" as="targetPoint" />
          </mxGeometry>
        </mxCell>
        <mxCell id="fz3nPnazKkWcJA0CuhD2-11" value="&lt;font color=&quot;#47b347&quot;&gt;Deployment&lt;br&gt;&lt;/font&gt;" style="swimlane;whiteSpace=wrap;html=1;fontColor=#66FF66;strokeColor=#47B347;labelBackgroundColor=none;fillColor=none;startSize=30;" parent="1" vertex="1">
          <mxGeometry x="10" y="260" width="540" height="290" as="geometry" />
        </mxCell>
        <mxCell id="1IW16SQAIGbm7M17Fada-6" value="&lt;font color=&quot;#47b347&quot;&gt;Pod&lt;/font&gt;" style="swimlane;whiteSpace=wrap;html=1;fontColor=#66FF66;strokeColor=#47B347;labelBackgroundColor=none;fillColor=none;" parent="fz3nPnazKkWcJA0CuhD2-11" vertex="1">
          <mxGeometry x="20" y="70" width="145" height="135" as="geometry">
            <mxRectangle x="20" y="50" width="60" height="30" as="alternateBounds" />
          </mxGeometry>
        </mxCell>
        <mxCell id="1IW16SQAIGbm7M17Fada-7" value="&lt;font color=&quot;#47b347&quot;&gt;app&lt;/font&gt;" style="ellipse;whiteSpace=wrap;html=1;aspect=fixed;fontColor=#66FF66;strokeColor=#47B347;labelBackgroundColor=none;fillColor=none;" parent="1IW16SQAIGbm7M17Fada-6" vertex="1">
          <mxGeometry x="32.5" y="37.5" width="80" height="80" as="geometry" />
        </mxCell>
        <mxCell id="fz3nPnazKkWcJA0CuhD2-3" value="&lt;font color=&quot;#47b347&quot;&gt;Pod&lt;/font&gt;" style="swimlane;whiteSpace=wrap;html=1;fontColor=#66FF66;strokeColor=#47B347;labelBackgroundColor=none;fillColor=none;" parent="fz3nPnazKkWcJA0CuhD2-11" vertex="1">
          <mxGeometry x="380" y="70" width="145" height="135" as="geometry" />
        </mxCell>
        <mxCell id="fz3nPnazKkWcJA0CuhD2-4" value="&lt;font color=&quot;#47b347&quot;&gt;app&lt;/font&gt;" style="ellipse;whiteSpace=wrap;html=1;aspect=fixed;fontColor=#66FF66;strokeColor=#47B347;labelBackgroundColor=none;fillColor=none;" parent="fz3nPnazKkWcJA0CuhD2-3" vertex="1">
          <mxGeometry x="32.5" y="37.5" width="80" height="80" as="geometry" />
        </mxCell>
        <mxCell id="RgUsFBboZ1PsnpottQdm-7" style="edgeStyle=orthogonalEdgeStyle;rounded=0;orthogonalLoop=1;jettySize=auto;html=1;entryX=0.5;entryY=1;entryDx=0;entryDy=0;exitX=1;exitY=0.5;exitDx=0;exitDy=0;strokeColor=#47B347;" parent="fz3nPnazKkWcJA0CuhD2-11" source="RgUsFBboZ1PsnpottQdm-5" target="fz3nPnazKkWcJA0CuhD2-3" edge="1">
          <mxGeometry relative="1" as="geometry" />
        </mxCell>
        <mxCell id="RgUsFBboZ1PsnpottQdm-5" value="config" style="rounded=0;whiteSpace=wrap;html=1;strokeColor=#47B347;fontColor=#47B347;fillColor=none;" parent="fz3nPnazKkWcJA0CuhD2-11" vertex="1">
          <mxGeometry x="240" y="230" width="70" height="30" as="geometry" />
        </mxCell>
        <mxCell id="RgUsFBboZ1PsnpottQdm-8" style="edgeStyle=orthogonalEdgeStyle;rounded=0;orthogonalLoop=1;jettySize=auto;html=1;entryX=0.5;entryY=1;entryDx=0;entryDy=0;exitX=0;exitY=0.5;exitDx=0;exitDy=0;strokeColor=#47B347;" parent="fz3nPnazKkWcJA0CuhD2-11" source="RgUsFBboZ1PsnpottQdm-5" target="1IW16SQAIGbm7M17Fada-6" edge="1">
          <mxGeometry relative="1" as="geometry">
            <mxPoint x="280" y="235" as="sourcePoint" />
            <mxPoint x="343" y="195" as="targetPoint" />
          </mxGeometry>
        </mxCell>
        <mxCell id="nWGFYipzO0famYZCPNDL-3" value="localhost:3000" style="text;html=1;align=center;verticalAlign=middle;resizable=0;points=[];autosize=1;strokeColor=none;fillColor=none;fontColor=#47B347;" vertex="1" parent="1">
          <mxGeometry x="1000" y="350" width="100" height="30" as="geometry" />
        </mxCell>
      </root>
    </mxGraphModel>
  </diagram>
</mxfile>
